//Mario main theme melody
int mario[] = {
  NOTE_E7, NOTE_E7, 0, NOTE_E7,
  0, NOTE_C7, NOTE_E7, 0,
  NOTE_G7, 0, 0,  0,
  NOTE_G6, 0, 0, 0,

  NOTE_C7, 0, 0, NOTE_G6,
  0, 0, NOTE_E6, 0,
  0, NOTE_A6, 0, NOTE_B6,
  0, NOTE_AS6, NOTE_A6, 0,

  NOTE_G6, NOTE_E7, NOTE_G7,
  NOTE_A7, 0, NOTE_F7, NOTE_G7,
  0, NOTE_E7, 0, NOTE_C7,
  NOTE_D7, NOTE_B6, 0, 0,

  NOTE_C7, 0, 0, NOTE_G6,
  0, 0, NOTE_E6, 0,
  0, NOTE_A6, 0, NOTE_B6,
  0, NOTE_AS6, NOTE_A6, 0,

  NOTE_G6, NOTE_E7, NOTE_G7,
  NOTE_A7, 0, NOTE_F7, NOTE_G7,
  0, NOTE_E7, 0, NOTE_C7,
  NOTE_D7, NOTE_B6, 0, 0
};
//Mario main them tempo ( duration in miliseconds )
int marioTempo[] = {
  83, 83, 83, 83,
  83, 83, 83, 83,
  83, 83, 83, 83,
  83, 83, 83, 83,

  83, 83, 83, 83,
  83, 83, 83, 83,
  83, 83, 83, 83,
  83, 83, 83, 83,

  100, 100, 100,
  83, 83, 83, 83,
  83, 83, 83, 83,
  83, 83, 83, 83,

  83, 83, 83, 83,
  83, 83, 83, 83,
  83, 83, 83, 83,
  83, 83, 83, 83,

  100, 100, 100,
  83, 83, 83, 83,
  83, 83, 83, 83,
  83, 83, 83, 83,
};






//NEVER GONNA GIVE YOU UP

int never[] =
{ NOTE_AS4, NOTE_AS4, NOTE_GS4, NOTE_GS4,
  NOTE_F5, NOTE_F5, NOTE_DS5, NOTE_AS4, NOTE_AS4, NOTE_GS4, NOTE_GS4, NOTE_DS5, NOTE_DS5, NOTE_CS5, NOTE_C5, NOTE_AS4,
  NOTE_CS5, NOTE_CS5, NOTE_CS5, NOTE_CS5,
  NOTE_CS5, NOTE_DS5, NOTE_C5, NOTE_AS4, NOTE_GS4, NOTE_GS4, NOTE_GS4, NOTE_DS5, NOTE_CS5,
  NOTE_AS4, NOTE_AS4, NOTE_GS4, NOTE_GS4,
  NOTE_F5, NOTE_F5, NOTE_DS5, NOTE_AS4, NOTE_AS4, NOTE_GS4, NOTE_GS4, NOTE_GS5, NOTE_C5, NOTE_CS5, NOTE_C5, NOTE_AS4,
  NOTE_CS5, NOTE_CS5, NOTE_CS5, NOTE_CS5,
  NOTE_CS5, NOTE_DS5, NOTE_C5, NOTE_AS4, NOTE_GS4, 0, NOTE_GS4, NOTE_DS5, NOTE_CS5, 0
};

int neverTempo[] =
{ 1, 1, 1, 1,
  3, 3, 6, 1, 1, 1, 1, 3, 3, 3, 1, 2,
  1, 1, 1, 1,
  3, 3, 3, 1, 2, 2, 2, 4, 8,
  1, 1, 1, 1,
  3, 3, 6, 1, 1, 1, 1, 3, 3, 3, 1, 2,
  1, 1, 1, 1,
  3, 3, 3, 1, 2, 2, 2, 4, 8, 4
};


//ALL STAR
int allStar[] = { NOTE_AS4, NOTE_FS4, NOTE_FS4, NOTE_E4, NOTE_FS4, NOTE_FS4, NOTE_FS4, NOTE_E4, NOTE_FS4, NOTE_FS4, NOTE_FS4, NOTE_AS4, 0, NOTE_AS4, NOTE_CS5, NOTE_B4, NOTE_CS5, NOTE_DS5, NOTE_FS5, NOTE_FS5, NOTE_GS5, NOTE_FS5, NOTE_FS4, NOTE_FS4, NOTE_GS4, NOTE_FS4, NOTE_AS4, NOTE_GS4, NOTE_GS4, NOTE_FS4, NOTE_GS4, NOTE_GS4, NOTE_AS4, NOTE_DS4,NOTE_DS4 }; //Tones/notes
int allStarTempo[] = { 50, 100, 25, 25, 50, 100, 25, 25, 50, 100, 100, 100, 25, 100, 100, 50, 50, 50, 50, 50, 50, 100, 50, 50, 50, 50, 50, 100, 100, 100, 50, 50, 50, 200, 50 }; //Tone/note lengths*/
